<svg width="18" height="25" viewBox="0 0 18 25" fill="none" xmlns="http://www.w3.org/2000/svg">
<path d="M17.0706 8.15236C17.0706 11.4214 15.1336 14.2399 12.3455 15.5187C13.5228 14.5489 14.2726 13.0777 14.2726 11.4313C14.2726 8.53909 11.9581 6.18709 9.0784 6.12845C9.04018 6.12582 9.00527 6.12582 8.96706 6.12582C8.92884 6.12582 8.89393 6.12582 8.85571 6.12845C7.7871 6.18643 6.94117 7.07057 6.94117 8.1517V18.2811C6.94117 21.6365 4.21891 24.3588 0.863525 24.3588V8.15236C0.863525 3.67763 4.49233 0.0488281 8.96706 0.0488281C13.4418 0.0488281 17.0706 3.67763 17.0706 8.15236Z" fill="white"/>
</svg>
